<?xml version="1.0" encoding="UTF-8"?>
<svg id="Layer_2" data-name="Layer 2" xmlns="http://www.w3.org/2000/svg" xmlns:xlink="http://www.w3.org/1999/xlink" viewBox="0 0 4834.79 970.53">
  <defs>
    <style>
      .cls-1 {
        stroke: url(#radial-gradient-28);
      }

      .cls-1, .cls-2, .cls-3, .cls-4, .cls-5, .cls-6, .cls-7, .cls-8, .cls-9, .cls-10, .cls-11, .cls-12, .cls-13, .cls-14, .cls-15, .cls-16, .cls-17, .cls-18, .cls-19, .cls-20, .cls-21, .cls-22, .cls-23, .cls-24, .cls-25, .cls-26, .cls-27, .cls-28, .cls-29 {
        fill: none;
        stroke-miterlimit: 10;
        stroke-width: 1.5px;
      }

      .cls-2 {
        stroke: url(#radial-gradient-5);
      }

      .cls-3 {
        stroke: url(#radial-gradient-19);
      }

      .cls-4 {
        stroke: url(#radial-gradient-29);
      }

      .cls-5 {
        stroke: url(#radial-gradient-13);
      }

      .cls-6 {
        stroke: url(#radial-gradient-6);
      }

      .cls-7 {
        stroke: url(#radial-gradient-9);
      }

      .cls-8 {
        stroke: url(#radial-gradient-17);
      }

      .cls-9 {
        stroke: url(#radial-gradient-4);
      }

      .cls-10 {
        stroke: url(#radial-gradient-11);
      }

      .cls-11 {
        stroke: url(#radial-gradient-16);
      }

      .cls-12 {
        stroke: url(#radial-gradient-22);
      }

      .cls-13 {
        stroke: url(#radial-gradient-15);
      }

      .cls-14 {
        stroke: url(#radial-gradient-3);
      }

      .cls-15 {
        stroke: url(#radial-gradient-26);
      }

      .cls-16 {
        stroke: url(#radial-gradient-21);
      }

      .cls-17 {
        stroke: url(#radial-gradient-23);
      }

      .cls-18 {
        stroke: url(#radial-gradient-18);
      }

      .cls-19 {
        stroke: url(#radial-gradient-24);
      }

      .cls-20 {
        stroke: url(#radial-gradient-10);
      }

      .cls-21 {
        stroke: url(#radial-gradient);
      }

      .cls-22 {
        stroke: url(#radial-gradient-8);
      }

      .cls-23 {
        stroke: url(#radial-gradient-27);
      }

      .cls-24 {
        stroke: url(#radial-gradient-25);
      }

      .cls-25 {
        stroke: url(#radial-gradient-2);
      }

      .cls-26 {
        stroke: url(#radial-gradient-12);
      }

      .cls-27 {
        stroke: url(#radial-gradient-7);
      }

      .cls-28 {
        stroke: url(#radial-gradient-20);
      }

      .cls-29 {
        stroke: url(#radial-gradient-14);
      }
    </style>
    <radialGradient id="radial-gradient" cx="2417.41" cy="528.42" fx="2417.41" fy="528.42" r="1737.7" gradientUnits="userSpaceOnUse">
      <stop offset="0" stop-color="#d4af37"/>
      <stop offset="1" stop-color="#fd7e50"/>
    </radialGradient>
    <radialGradient id="radial-gradient-2" cx="2417.37" cy="525.74" fx="2417.37" fy="525.74" r="1736.45" xlink:href="#radial-gradient"/>
    <radialGradient id="radial-gradient-3" cx="2417.29" cy="519" fx="2417.29" fy="519" r="1733.47" xlink:href="#radial-gradient"/>
    <radialGradient id="radial-gradient-4" cx="2417.17" cy="508.97" fx="2417.17" fy="508.97" r="1729.47" xlink:href="#radial-gradient"/>
    <radialGradient id="radial-gradient-5" cx="2417.03" cy="496.3" fx="2417.03" fy="496.3" r="1725.18" xlink:href="#radial-gradient"/>
    <radialGradient id="radial-gradient-6" cx="2416.88" cy="475.23" fx="2416.88" fy="475.23" r="1721.72" xlink:href="#radial-gradient"/>
    <radialGradient id="radial-gradient-7" cx="2416.75" cy="444.7" fx="2416.75" fy="444.7" r="1719.51" xlink:href="#radial-gradient"/>
    <radialGradient id="radial-gradient-8" cx="2416.63" cy="415.81" fx="2416.63" fy="415.81" r="1717.67" xlink:href="#radial-gradient"/>
    <radialGradient id="radial-gradient-9" cx="2416.54" cy="391.25" fx="2416.54" fy="391.25" r="1716.38" xlink:href="#radial-gradient"/>
    <radialGradient id="radial-gradient-10" cx="2416.47" cy="372.98" fx="2416.47" fy="372.98" r="1715.73" xlink:href="#radial-gradient"/>
    <radialGradient id="radial-gradient-11" cx="2416.48" cy="358.74" fx="2416.48" fy="358.74" r="1715.53" xlink:href="#radial-gradient"/>
    <radialGradient id="radial-gradient-12" cx="2416.54" cy="338.07" fx="2416.54" fy="338.07" r="1714.87" xlink:href="#radial-gradient"/>
    <radialGradient id="radial-gradient-13" cx="2416.65" cy="311.88" fx="2416.65" fy="311.88" r="1713.89" xlink:href="#radial-gradient"/>
    <radialGradient id="radial-gradient-14" cx="2416.79" cy="281.89" fx="2416.79" fy="281.89" r="1712.81" xlink:href="#radial-gradient"/>
    <radialGradient id="radial-gradient-15" cx="2416.94" cy="250.16" fx="2416.94" fy="250.16" r="1711.81" xlink:href="#radial-gradient"/>
    <radialGradient id="radial-gradient-16" cx="2417.1" cy="231.34" fx="2417.1" fy="231.34" r="1711.46" xlink:href="#radial-gradient"/>
    <radialGradient id="radial-gradient-17" cx="2417.23" cy="221.25" fx="2417.23" fy="221.25" r="1711.5" xlink:href="#radial-gradient"/>
    <radialGradient id="radial-gradient-18" cx="2417.33" cy="210.05" fx="2417.33" fy="210.05" r="1711.53" xlink:href="#radial-gradient"/>
    <radialGradient id="radial-gradient-19" cx="2417.4" cy="197.36" fx="2417.4" fy="197.36" r="1711.54" xlink:href="#radial-gradient"/>
    <radialGradient id="radial-gradient-20" cx="2417.42" cy="182.72" fx="2417.42" fy="182.72" r="1711.52" xlink:href="#radial-gradient"/>
    <radialGradient id="radial-gradient-21" cx="2417.42" cy="163.6" fx="2417.42" fy="163.6" r="1711.33" xlink:href="#radial-gradient"/>
    <radialGradient id="radial-gradient-22" cx="2417.42" cy="144.15" fx="2417.42" fy="144.15" r="1710.89" xlink:href="#radial-gradient"/>
    <radialGradient id="radial-gradient-23" cx="2417.42" cy="121.62" fx="2417.42" fy="121.62" r="1710.44" xlink:href="#radial-gradient"/>
    <radialGradient id="radial-gradient-24" cx="2417.42" cy="98.2" fx="2417.42" fy="98.2" r="1710.02" xlink:href="#radial-gradient"/>
    <radialGradient id="radial-gradient-25" cx="2417.42" cy="75.42" fx="2417.42" fy="75.42" r="1709.67" xlink:href="#radial-gradient"/>
    <radialGradient id="radial-gradient-26" cx="2417.42" cy="52.69" fx="2417.42" fy="52.69" r="1709.46" xlink:href="#radial-gradient"/>
    <radialGradient id="radial-gradient-27" cx="2417.42" cy="32.14" fx="2417.42" fy="32.14" r="1709.35" xlink:href="#radial-gradient"/>
    <radialGradient id="radial-gradient-28" cx="2417.42" cy="14.71" fx="2417.42" fy="14.71" r="1709.32" xlink:href="#radial-gradient"/>
    <radialGradient id="radial-gradient-29" cx="2417.42" cy=".93" fx="2417.42" fy=".93" r="1709.31" xlink:href="#radial-gradient"/>
  </defs>
  <g id="Layer_1-2" data-name="Layer 1">
    <g>
      <path class="cls-21" d="M.09,316.77c52.58,4.1,84.69,42.21,108.69,86.25,36.01,66.06,55.93,140.91,76.43,212.82,17.67,62,34.22,124.5,56.12,185.19,19.03,52.74,43.11,116.86,90.66,151.04,38.58,27.73,86.26,17.89,128.39,4.33,62.25-20.03,120.78-52.03,177.32-84.35,139.14-79.55,270.37-172.46,411.2-249.11,47.07-25.62,95.8-50.39,147.23-66.09,43.36-13.24,88.45-8.62,131.47-22.05,75.81-23.67,137.56-80.19,195.53-132.05,59.16-52.93,118.97-111.42,193.08-142.91,32.23-13.7,63.22-18.1,97.86-19.38,39.15-1.45,77.63-7.63,115.52-17.51,140.08-36.54,268.07-115.88,413.21-133.61,85.44-10.44,159.63,16.34,234.49,55.99,92.56,49.02,178.37,109.72,267.45,164.55,76.66,47.19,163.86,102.58,255.93,109.97,34.82,2.79,66.3,4.43,99.67,16.49,39.32,14.21,75.49,36.21,109.66,60,67.31,46.86,128.1,102.68,197.32,146.85,65.06,41.53,144.68,75.07,222.09,49.64,98.52-32.36,171.07-126.53,238.71-199.88,66.81-72.46,151.7-174.16,259.33-176.18,50.66-.95,98.51,22.83,139.62,50.3,56.96,38.06,106.74,86.24,156.16,133.35,85.08,81.11,185.29,195.74,311.49,201.49"/>
      <path class="cls-25" d="M.09,316.07c52.07,5.96,84.37,43.55,108.78,87.35,34.21,61.39,54.18,130.57,74.3,197.5,19.17,63.76,36.77,128.2,60.24,190.56,19.69,52.32,44.32,114.14,91.57,147.89,37.51,26.79,80.53,18.86,121.96,6.23,65.13-19.87,126.15-53.35,185.01-86.99,131.69-75.27,256.37-162.28,389.06-235.84,52.33-29.01,106.68-57.41,164.27-74.55,43.19-12.86,88.3-9.93,130.89-25.29,75.7-27.31,137.7-84.38,196.79-137.02,58.69-52.28,118.05-109.2,190.23-142.54,67.08-30.98,142.25-22.78,213.46-37.81,140.64-29.67,272.73-95.18,416.72-109.76,82.74-8.38,155.5,16.85,228.87,53.68,93.7,47.04,180.93,105.88,271.23,158.9,77.56,45.53,163.88,97.02,255.25,106.43,34.69,3.57,66.52,5.75,99.72,17.91,37.51,13.74,72.27,34.05,105.36,56.22,68.06,45.59,129.78,100.12,199.22,143.72,67.19,42.18,148.56,77.39,227.83,49.28,95.3-33.8,167.02-121.19,234.88-191.9,67.5-70.33,154.44-171.16,260.38-174.7,52.37-1.75,104.21,26.35,146.35,54.37,54.05,35.94,102.19,80.2,150.03,123.82,87.39,79.68,186.95,187.25,312.19,196.72"/>
      <path class="cls-14" d="M.09,313.83c51.11,6.19,84.03,41.43,109.28,84.16,34.38,58.17,55.08,124.22,75.77,188.14,19.66,60.72,37.81,122.14,61.68,181.39,20.4,50.63,45.98,109.29,92.61,141.33,37.89,26.03,80.29,18.56,121.84,6.02,64.16-19.35,124.33-51.99,182.36-84.94,129.07-73.28,251.21-158.24,381.28-229.83,51.63-28.42,105.25-56.11,162.02-72.81,43.2-12.72,88.17-10.59,130.77-26.04,75.89-27.52,139.32-82.49,200.22-133.75,60.4-50.84,121.34-105.71,193.9-138.76,67.99-30.97,141.73-23.26,214.09-34.45,140.83-21.78,276.6-71.72,419.37-81.73,81.54-5.72,153.84,16.34,227.47,50.36,91.38,42.22,177.23,95.35,265.72,143.1,77.78,41.97,162.58,87.61,251.95,96.99,34.62,3.63,66.68,5.89,99.93,17.59,37.62,13.23,72.72,32.72,106.29,54.06,68.77,43.72,131.69,96.13,201.72,137.91,68.31,40.75,149.33,74.42,228.75,47.42,94.42-32.1,167.41-114.1,236.9-181.73,69.47-67.61,157.65-162.32,262.13-165.86,51.6-1.75,103.84,25,146.33,51.34,53.59,33.23,101.94,74.34,149.98,114.97,89.55,75.74,189.04,173.58,312.1,183.53"/>
      <path class="cls-9" d="M.09,310.15c113.97,12.07,155.8,163.98,187.94,253.97,20.29,56.83,39.11,114.39,63.53,169.64,21.27,48.11,48.07,102.74,94.1,131.84,38.04,24.06,80.31,17.13,121.34,5.05,62.77-18.48,121.69-49.99,178.48-81.93,125.7-70.7,244.55-153.03,371.23-222.04,50.56-27.55,103.1-54.27,158.67-70.22,43.12-12.38,87.88-10.39,130.61-24.83,76.39-25.81,141.99-77.07,205.32-125.42,62.7-47.86,125.91-99.14,199.2-130.04,69.38-29.25,142.04-21.44,215.44-28.3,141.16-13.18,280.04-46.59,422.05-51.38,176.1-5.94,329.74,93.59,483.49,166.71,77.41,36.82,160.49,75.44,247.03,82.92,34.64,2.99,66.95,5.35,100.32,16.31,37.83,12.42,73.41,30.82,107.59,51.06,69.7,41.29,134.1,91.06,204.95,130.47,69.75,38.8,150.69,69.74,230.43,45.04,93.54-28.98,168.22-104.52,239.63-167.9,72.5-64.35,161.34-149.88,264.66-153.03,110-3.35,214.34,86.89,296.2,149.26,91.85,69.98,191.64,156.53,311.97,164.75"/>
      <path class="cls-2" d="M.09,305.1c111,8.6,156.35,144.66,191.39,232.07,21.01,52.41,40.59,105.61,65.64,156.29,22.3,45.11,50.5,95.06,95.88,120.54,38.01,21.34,80.46,15.03,120.61,3.6,61.12-17.39,118.54-47.59,173.84-78.34,121.86-67.75,236.96-147.09,359.79-213.16,49.27-26.5,100.51-52.09,154.64-67.09,42.98-11.91,87.54-9.59,130.44-22.29,77.13-22.83,145.34-69.29,211.51-113.58,65.38-43.76,131.26-90.38,205.56-117.91,70.94-26.29,143.08-18.15,217.22-20.45,141.68-4.4,282.83-20.87,424.69-20.27,77.08.33,148.3,11.07,221.6,35.65,85.23,28.57,167.03,66.28,250.47,99.5,76.83,30.59,157.74,61.11,241.1,65.97,76.91,4.48,142.1,25.07,209.94,61.99,130.32,70.93,281.13,207.66,441.2,164.35,92.69-25.08,169.27-93.46,242.8-151.8,76.2-60.45,165.26-135.18,267.68-137.72,108.56-2.69,210.11,71.68,296.08,129,94.21,62.82,194.49,137.28,311.82,142.5"/>
      <path class="cls-6" d="M.09,298.77c108.04,4.79,156.9,124.93,195.4,209.55,21.79,47.88,42.23,96.61,68.04,142.52,23.54,41.88,53.41,86.78,98.27,108.07,38.2,18.13,81.23,11.91,120.51.97,59.63-16.61,115.68-45.68,169.67-75.41,117.95-64.94,229.31-141.34,348.46-204.15,47.79-25.19,97.55-49.35,150.1-62.84,40.94-10.51,83.31-7.84,124.48-17.63,80.32-19.11,153.18-61.65,224.2-102.25,68.23-39,137.18-80.35,212.89-103.2,70.82-21.38,141.58-13.05,214.37-10.94,142.72,4.15,285.54,4.33,428.21,10.07,76.77,3.08,149.64,8.4,224.33,28.01,80.01,21.01,157.84,49.33,236.77,73.9,74.45,23.18,151.39,44.92,229.81,47.48,79.17,2.59,146.96,21.91,218,57.27,134.93,67.15,282.28,187.42,442.96,152.27,94.42-20.65,174.77-83.93,252.4-137.99,78.66-54.77,166.11-116.49,265.72-118.79,107.47-2.47,206.24,55.81,296.61,107.08,96.78,54.9,197.78,117.43,312.4,119.34"/>
      <path class="cls-27" d="M.09,291.26c104.55,1.49,156.74,105.72,198.95,186.99,40.3,77.58,82.4,189.8,170.27,225.38,91.45,37.03,206.77-29.88,284.56-72.13,114.03-61.93,221.56-135.26,336.77-195.06,46.48-24.12,94.92-47.12,146-59.65,40.88-10.03,83.09-6.69,124.39-14.52,81.28-15.41,156.89-52.25,230.94-87.73,71.05-34.04,142.71-69.88,219.6-88.86,71.98-17.77,143.15-9.32,216.11-3.31,143.56,11.82,286.74,27.96,430.45,38.05,74.26,5.22,147.04,5.09,220.67,18.42,76.84,13.91,152.42,33.82,228.64,50.66,73.47,16.23,148.28,30.43,223.8,30.32,78.69-.11,148.51,19.18,220.08,51.5,140.48,63.44,286.28,170.16,448.87,140.91,190.11-34.2,325.58-221.64,524.48-224.47,219.89-3.14,389.51,184.85,608.74,182.91"/>
      <path class="cls-22" d="M.09,282.64c101.12-.47,156.1,89.64,202.03,167.44,42.79,72.48,87.99,173.03,173.79,203.05,92.02,32.19,201.26-27.85,279.78-69.93,110.49-59.21,214.6-129.79,326.25-186.89,45.36-23.2,92.66-45.15,142.47-56.9,40.9-9.65,82.94-5.8,124.36-11.96,82.2-12.22,160.23-43.81,236.96-74.43,73.56-29.36,147.63-60.12,225.62-75.67,72.79-14.51,144.52-6.52,217.46,2.68,144.46,18.23,287.22,48.88,432.34,62.09,72.44,6.6,145.02,2.58,217.6,10.14,74.05,7.71,147.55,19.87,221.32,29.75,72.45,9.7,145.42,17.41,218.61,15.52,78.23-2.03,149.85,17.07,221.88,46.73,144.88,59.65,290.22,155.14,454.02,130.71,189.47-28.26,333.75-194.47,530.06-196.11,104.65-.87,199.65,31.47,296.38,68.46,100.56,38.46,202.63,79.29,312.11,76.56"/>
      <path class="cls-7" d="M.09,273c200.32-.92,210.26,284.49,380.81,338.77,92.23,29.35,197.39-26.02,276.46-67.92,107.64-57.04,208.99-125.35,317.77-180.29,44.58-22.52,91.05-43.67,139.92-54.92,40.95-9.43,82.91-5.52,124.42-10.56,82.96-10.07,162.82-37.38,241.64-63.96,75.53-25.47,151.48-52.1,230.37-65.17,73.17-12.12,145.35-5.48,218.17,5.96,145.32,22.84,287.11,66.08,433.79,80.62,71.42,7.08,143.81,1.3,215.57,4.3,71.88,3.01,143.61,8.62,215.42,12.89,71.55,4.25,143.19,7.11,214.86,4.8,77.94-2.51,150.71,16.07,223.2,43.67,147.54,56.17,293.89,144.08,457.87,122.49,188.49-24.82,340.35-173.19,534.3-174.57,102.93-.73,198.63,24.79,296.29,55.15,101.75,31.62,204.24,64.39,312.01,61.71"/>
      <path class="cls-20" d="M.09,262.44c195.19,4.35,215.38,267.87,383.53,321.52,92.16,29.4,195.78-24.41,275.2-66.19,105.74-55.62,205.31-122.39,312.17-175.95,44.26-22.18,90.36-42.86,138.79-54.04,40.99-9.46,83.02-6.19,124.61-10.94,83.35-9.51,164.26-34.02,244.38-57.91,76.78-22.9,153.87-46.78,233.26-58.88,73.03-11.12,145.37-7.03,217.95,5.44,146.01,25.09,286.59,78.6,434.69,92.05,71.14,6.46,143.64,1.73,215.02,2.02,70.51.28,141.02,1.18,211.52,1.76,71.05.58,142.09.77,213.14-.12,77.91-.98,150.86,16.68,223.84,43.05,147.99,53.47,297.03,138.7,459.86,117.1,187.11-24.83,344.8-160.34,536.62-162.78,208.36-2.65,400.04,102.86,608.19,102.49"/>
      <path class="cls-10" d="M.09,251.04c191.1,11.96,217.8,258.42,383.58,314.5,91.38,30.91,196.18-24.05,275.66-65.02,103.48-53.35,201.23-117.25,305.74-168.66,44.29-21.78,90.21-41.87,138.34-53.5,41.09-9.93,82.85-7.79,124.57-12.67,84.43-9.88,166.64-34.16,248.1-57.55,78.29-22.48,156.86-46.06,237.54-58.44,72.16-11.07,143.63-7.96,215.42,4.39,147.87,25.43,290.04,81.72,440.19,94.37,71.13,5.99,143.68,2.59,215.02,2.31,69.01-.28,138.01-.84,207.02-1.26,70.78-.43,141.56-.68,212.34-.39,78.21.32,150.89,16.94,224.25,43.56,146.9,53.32,295.25,138.77,457.03,116.46,187.22-25.82,348.11-159.42,539.9-161.89,207.18-2.66,401.14,95.72,608.12,99.94"/>
      <path class="cls-26" d="M.09,238.88c185.34,14.15,220.18,241.29,382.75,294.7,89.61,29.44,192.26-21.26,271.56-59.88,98.78-48.1,192.5-106.07,292.18-152.38,43.4-20.16,88.22-38.45,134.92-49.4,41.24-9.67,82.87-8.06,124.67-12.95,87.86-10.27,173.65-35.13,258.64-58.73,81.98-22.77,164.25-46.82,248.51-59.67,72.67-11.08,144.41-7.89,216.71,4.43,152.99,26.07,300.78,82.55,456.02,95.61,70.34,5.92,142.1,2.69,212.63,1.73,65.84-.89,131.67-2.47,197.51-3.69,69.06-1.28,138.13-2.08,207.21-1.7,77.64.42,149.38,16.58,221.92,43.91,144.66,54.49,287.95,139.58,448.38,117.48,190.52-26.25,356.13-161.05,551.13-163.17,206.34-2.24,402.06,87.55,608.2,92.77"/>
      <path class="cls-5" d="M.09,226.05c87.94,6.12,148.09,58.4,204.4,121.55,50.48,56.6,101.28,119.89,177.04,142.26,86.97,25.69,184.5-16.14,263.29-50.94,92.33-40.79,180.36-90.77,273.45-129.89,41.7-17.53,84.62-33.05,129-42.28,41.37-8.61,83.24-7.08,125.03-11.95,93.02-10.85,184.08-36.44,274.34-60.5,87.31-23.27,174.9-47.95,264.39-61.45,74.64-11.26,147.86-7.97,222.16,4.42,160.61,26.77,316.4,83.76,479.19,97.43,129.76,10.9,262.86-1.6,392.74-6.54,66.11-2.51,132.25-4.15,198.41-3.95,76.18.23,146.27,16.36,216.95,44.45,141.31,56.15,277.43,140.72,435.78,118.96,97.26-13.36,189.32-53.29,280.09-88.71,91.65-35.76,188.59-75.28,288.46-76.45,205.51-2.39,403.07,76.42,608.43,81.1"/>
      <path class="cls-29" d="M.09,212.64c84.04,4.12,145.12,46.68,203.64,103.59,51.87,50.43,103.46,103.97,176.18,121.96,83.42,20.64,174.56-10.02,252.22-39.47,84.7-32.12,165.99-72.65,251.28-103.27,39.49-14.18,79.94-26.28,121.39-33.15,41.58-6.89,83.75-5.24,125.56-10.11,99.33-11.56,196.79-37.98,293.48-62.64,93.74-23.91,187.72-49.34,283.53-63.6,77.57-11.55,153.13-8.18,230.37,4.36,169.87,27.59,335.27,85.24,507.26,99.64,123.17,10.32,248.71-4.18,371.66-12.16,62.33-4.05,124.71-6.7,187.18-6.83,74.14-.16,142.12,16.21,210.22,45.12,137.23,58.26,264.63,142.1,420.57,120.76,100.89-13.81,196.83-54.27,291.42-90,95.1-35.92,195.59-76.14,298.7-77.61,204.77-2.92,404.07,63.3,608.76,66.45"/>
      <path class="cls-13" d="M.09,198.74c79.89,1.73,141.95,34.45,202.8,83.73,53.35,43.21,105.84,86.66,175.24,99.85,158.68,30.17,318.75-59.72,467.14-101.31,37.02-10.38,74.7-18.74,112.94-23.01,41.95-4.68,84.17-2.96,126.17-7.84,106.23-12.34,210.65-39.63,314.34-64.98,100.7-24.62,201.63-50.85,304.31-65.93,80.98-11.89,159.31-8.47,239.98,4.29,179.97,28.47,355.75,86.84,537.78,102.05,116.33,9.72,233.18-6.74,348.74-18.3,58.09-5.81,116.33-9.5,174.72-10.01,71.8-.64,137.49,16.08,202.62,45.86,63.7,29.13,123.61,66.1,188.51,92.66,69.28,28.35,141.03,40.21,215.53,30.06,104.86-14.29,205-55.31,303.77-91.4,98.95-36.16,203.24-77,309.99-78.9,204.18-3.63,404.99,49.19,609.14,50.31"/>
      <path class="cls-11" d="M.09,184.43c75.9-.44,138.94,23.22,201.96,63.88,54.83,35.37,108.22,68.97,174.31,77.75,147.22,19.57,288.39-33.45,430.78-59.88,77.07-14.31,153.91-9.47,231.29-18.44,113.14-13.12,224.52-41.27,335.2-67.32,107.66-25.35,215.53-52.37,325.1-68.26,84.38-12.23,165.49-8.75,249.58,4.22,190.08,29.34,376.22,88.45,568.29,104.45,109.99,9.17,217.46-8.85,325.82-24.44,53.8-7.74,107.9-12.33,162.26-13.2,69.47-1.12,132.93,15.93,195.01,46.61,59.78,29.55,115.34,67.18,176.47,94.09,67.63,29.77,137.67,40.55,211.05,30.59,108.85-14.77,213.18-56.34,316.11-92.8,102.81-36.41,210.88-77.83,321.28-80.18,203.75-4.33,405.76,35.07,609.52,34.18"/>
      <path class="cls-8" d="M.09,169.8c72.49-1.92,136.48,14.22,201.2,45.92,56.01,27.43,110.38,52.2,173.45,57.45,133.88,11.14,264.7-11.25,397.54-21.78,74.79-5.93,149.69,1.16,224.21-7.46,119.48-13.83,237.25-42.77,354.33-69.47,114.07-26.01,228.33-53.77,344.24-70.41,87.29-12.53,170.78-8.98,257.8,4.18,199.38,30.14,395.03,89.92,596.36,106.67,104.82,8.72,202.78-10.13,304.74-30.06,49.85-9.74,100.25-14.95,151.03-16.07,67.45-1.49,128.96,15.67,188.28,47.29,56.17,29.94,107.63,68.2,165.3,95.42,66.02,31.17,134.7,40.85,207.01,31.08,112.52-15.21,220.69-57.29,327.44-94.08,106.27-36.62,217.82-78.63,331.51-81.33,203.49-4.83,406.33,21.95,609.84,19.56"/>
      <path class="cls-18" d="M.09,154.94c69.96-2.33,134.85,8.33,200.6,31.73,56.73,20.19,112.07,37.77,172.74,40.75,123.3,6.05,247.07,6.32,370.53,9.65,73.16,1.97,145.66,9.09,218.64.65,124.68-14.41,247.69-44.02,370.03-71.22,119.39-26.55,238.94-54.91,360.12-72.18,89.23-12.72,174.27-9.08,263.25,4.17,207.06,30.82,410.56,91.14,619.53,108.5,60.09,4.99,121.26,3.26,180.66-7.71,36.16-6.67,71.07-17.99,106.67-26.91,110.4-27.66,224.69-27.9,325.55,29.53,53.14,30.26,101.07,69.08,155.85,96.55,64.62,32.4,132.48,41.08,203.86,31.46,115.52-15.57,226.86-58.08,336.75-95.12,108.95-36.72,223.38-79.4,339.63-82.24,203.36-4.97,406.68,10.82,610.08,7.95"/>
      <path class="cls-3" d="M.09,139.93c68.4-1.32,134.05,6.25,200.24,23.22,57.02,14.62,113.18,27.18,172.27,29.47,68.33,2.65,135.8,3.48,203.85,11.56,49.75,5.91,99.23,13.95,149.02,19.52,71.78,8.03,143.36,12.79,215.33,4.48,128.17-14.8,254.7-44.89,380.58-72.4,123.06-26.89,246.28-55.68,371.09-73.41,89.74-12.74,175.04-8.98,264.53,4.22,212.28,31.32,421.19,91.98,635.37,109.77,59.11,4.91,120.03,4.12,178.28-8.27,33.25-7.08,64.69-19.61,97.17-29.33,105.83-31.65,221.97-28.88,318.09,28.59,50.96,30.47,96.26,69.78,149.01,97.38,63.59,33.27,131.35,41.21,202.05,31.69,117.53-15.82,231.02-58.65,343.02-95.8,110.45-36.63,226.91-80.13,344.59-82.77,203.29-4.56,406.83,2.69,610.16.85"/>
      <path class="cls-28" d="M.09,124.86c67.84.54,133.99,7.68,200.34,21.59,57.35,12.02,114.24,22.59,172.91,25.59,68.25,3.48,135.75,1.97,203.53,12.42,48.47,7.47,96.24,18.84,144.81,25.7,201.4,28.44,402.12-26.4,597.84-68.55,123.88-26.68,247.89-55.21,373.42-73.11,89.68-12.79,174.34-8.93,263.79,4.22,213.39,31.37,423.57,90.87,638.78,109.22,58.97,5.03,119.93,4.67,178.02-8.06,32.56-7.14,63.12-20,94.83-29.91,104.97-32.79,222.05-28.39,317.35,28.72,50.39,30.19,95.12,69.17,147.28,96.51,63.52,33.3,131.18,41.47,201.81,31.74,117.85-16.24,231.8-58.47,344.39-95.2,110.66-36.1,227.73-79.71,345.41-82.61,203.11-5.01,406.97-.65,610.14-.66"/>
      <path class="cls-16" d="M.09,109.82c68.91.85,136.45,8.03,204.16,20.56,59.28,10.97,118.26,20.97,178.58,24.05,68.45,3.5,136.28,2.73,204.35,12.21,50.57,7.04,100.61,17.45,151.27,23.96,199.42,25.62,396.17-24.69,590.51-64.89,120.73-24.98,241.56-51.5,363.74-68.53,41.31-5.76,83.41-11.35,125.2-10.02,46.59,1.48,93.13,7.38,139.24,13.91,209.05,29.64,415.17,84.37,625.79,102.53,59.83,5.16,120.48,4.1,179.57-7.48,34.93-6.84,68.4-18.64,102.7-27.86,108.68-29.23,221.71-26.5,321.92,27.86,51.97,28.19,99.31,64.35,152.73,89.96,64.88,31.11,131.87,40.2,202.97,30.36,115.92-16.05,228.29-55.03,339.68-89.47,110.14-34.05,225.72-74.49,342.02-78.47,98.85-3.38,198.35-.29,297.27-.41,104.32-.12,208.64-.25,312.95-.24"/>
      <path class="cls-12" d="M.09,94.9c134.95,1.66,265.8,33.73,400.2,39.87,69.81,3.19,139.13,2.88,208.68,11.04,53.79,6.32,107.22,15.45,161.07,21.32,73.11,7.96,146.01,10.46,219.24,2.54,120.33-13.01,239.43-37.6,358.15-60.55,115.56-22.33,231.2-45.97,347.99-61.06,88.32-11.42,171.93-8.07,260.1,3.45,201.82,26.38,401.14,75.2,604.25,91.42,61.17,4.88,122.58,3.14,183.21-6.64,38.66-6.24,76.4-16.56,114.64-24.78,113.51-24.38,226.52-24.11,333.45,25.11,54.46,25.07,105.42,57.26,160.97,80.04,66.6,27.3,134.18,36.32,205.57,27.23,112.8-14.37,222.62-48.94,331.7-79.79,108.63-30.72,221.53-66.38,335.22-70.22,98.86-3.34,198.35-.28,297.27-.38,104.32-.1,208.64-.2,312.95-.2"/>
      <path class="cls-17" d="M.09,80.17c142.07,1.32,281.52,28.38,423.25,33.6,72,2.65,143.64,2.53,215.47,9.21,57.8,5.37,115.37,13.03,173.21,18.04,73.96,6.4,147.98,9.16,221.99,2.24,113.49-10.62,226-31.51,338.19-51.09,108.96-19.02,218.01-39.13,327.97-51.58,85.15-9.64,167.22-6.81,252.25,2.94,192.57,22.07,383.13,64.06,576.7,77.2,108.31,7.35,211.47-9.47,317.76-26.58,118.9-19.14,235.5-21.02,349.88,21.02,57.62,21.18,112.82,48.54,171.19,67.73,68.42,22.5,137.51,30.58,209.18,22.88,108.87-11.7,215.43-41.02,321.42-67.33,106.38-26.41,215.81-56.18,326.02-59.07,203.09-5.33,407.02-.46,610.18-.43"/>
      <path class="cls-19" d="M.09,65.74c150.42.7,299.31,22.49,449.53,26.45,74.67,1.97,149.1,1.84,223.68,6.99,62.28,4.3,124.42,10.39,186.71,14.39,74.86,4.81,150.11,7.56,224.99,2.02,105.77-7.82,210.84-24.62,315.64-40.42,101.55-15.3,203.17-31.5,305.47-40.93,81.27-7.5,161.18-5.28,242.37,2.37,182.15,17.17,362.82,51.71,545.68,61.19,114.52,5.94,226.74-8.28,340.16-21.22,124.52-14.2,247.33-17.38,369.14,16.16,61.19,16.85,120.88,38.85,182.54,54.05,70.25,17.32,141.21,23.71,213.38,17.83,210.42-17.16,413.43-96.49,625.25-99.53,203.28-2.92,406.81-.3,610.11-.27"/>
      <path class="cls-24" d="M.09,51.67c159.19-.04,317.59,16.47,476.67,19.07,144.62,2.36,288.38,8.94,432.86,15.31,75.85,3.35,152.19,5.71,228.05,1.83,97.83-5,195.21-17.56,292.39-29.41,171.73-20.94,341.13-40.45,514.26-28.17,171.42,12.16,341.87,38.91,513.74,44.7,121.56,4.09,242.2-6.56,363.24-15.71,130.26-9.85,260.28-13.55,389.16,11.09,64.92,12.42,129.02,28.88,194.19,40,72.04,12.29,144.75,16.44,217.74,12.58,202.13-10.7,399.41-71.59,602.33-71.79,203.34-.2,406.69-.14,610.03-.1"/>
      <path class="cls-15" d="M.09,38.08c167.57-.72,334.8,10.81,502.32,12.08,151.5,1.15,302.59,5.49,454.03,9.59,168.16,4.55,333.82-2.44,501.35-17.38,161.04-14.37,321.03-25.83,482.77-18.31,161.23,7.5,321.94,26.48,483.4,29.03,128.58,2.03,256.77-4.59,385.15-10.45,135.91-6.21,272.53-9.8,407.86,6.38,143.06,17.1,282.48,37.93,427.15,34.24,194.31-4.96,385.99-47.66,580.67-45.57,203.27,2.18,406.68,0,609.97.03"/>
      <path class="cls-23" d="M.09,25.03c174.74-1.11,349.38,5.91,524.11,6.15,157.35.22,314.54,2.6,471.88,4.76,162.02,2.23,323.25.12,485.06-8.75,152.22-8.34,304.18-13.39,456.64-9.79,152.44,3.6,304.68,15.26,457.2,15.5,134.76.21,269.37-2.66,404.08-5.83,140.89-3.32,282.47-6.25,423.19,2.57,147.14,9.23,292.76,18.96,440.3,18.38,187.72-.75,374.41-26.53,562.25-23.29,203.18,3.51,406.72.09,609.93.12"/>
      <path class="cls-1" d="M.09,12.61c341.3-1.87,682.75,1.72,1024.05,3.3,304.23,1.42,608.28-8.12,912.49-6.08,285.4,1.92,570.46,5.61,855.9,3.19,294.52-2.5,588.75,4.85,883.21,6.75,183.08,1.18,365.96-10.09,549.06-7.33,203.22,3.07,406.71.1,609.96.12"/>
      <path class="cls-4" d="M.09.92c645.87-.25,1291.73-.06,1937.6-.07,581.31,0,1162.62-.31,1743.93.15,384.38.3,768.76-.08,1153.14-.08"/>
    </g>
  </g>
</svg>