<?xml version="1.0" encoding="UTF-8"?>
<svg id="Layer_2" data-name="Layer 2" xmlns="http://www.w3.org/2000/svg" viewBox="0 0 898.23 872.6">
  <defs>
    <style>
      .cls-1 {
        fill: #fff;
      }
    </style>
  </defs>
  <g id="Layer_1-2" data-name="Layer 1">
    <g>
      <path class="cls-1" d="M672.07,9.7c1.97.98,6.49,3.53,8.38,4.48,0,0,2.74,1.59,2.74,1.59,0,0,5.48,3.19,5.48,3.19,1.89,1.14,6.24,3.96,8.05,5.06,1.22.84,6.44,4.35,7.88,5.34,1.8,1.29,5.96,4.36,7.69,5.61,1.18.96,6.12,4.76,7.5,5.87,1.71,1.44,5.66,4.74,7.3,6.11,1.13,1.05,5.79,5.15,7.1,6.35,1.61,1.57,5.35,5.08,6.89,6.58,1.08,1.13,5.44,5.52,6.67,6.8,1.5,1.69,5.02,5.41,6.46,7.01,1.01,1.2,5.08,5.85,6.23,7.22,1.38,1.8,4.67,5.7,6,7.41,1,1.21,4.66,6.2,5.77,7.6,2.17,3.03,5.28,7.37,7.29,10.43,2.64,3.84,6.13,9.48,8.54,13.42.84,1.35,3.84,6.74,4.76,8.28,1.13,1.98,3.44,6.53,4.5,8.43,3.18,6.29,6.73,13.71,9.44,20.2,9.1,21.41,15.81,44.29,19.48,67.27,15.92,95.44-22.29,195.8-92.55,261.28-91.08,90.38-203.9,130.83-329.31,90.73-152.27-48.47-257.87-209.26-206.52-367.34C224.13,125.8,284.98,59.85,347.59,2.38c0,0,8.58,15.5,8.58,15.5-43.99,12.35-86.06,31.36-124.67,55.82-82.17,52.02-148.46,128.24-190.38,215.88-13.8,29.09-26.42,62.05-19.22,94.3,1.21,4.97,2.93,9.76,5.16,14.31,0,0-18.76,5.16-18.76,5.16-1.57-19.77,9.93-38.51,26.12-48.97,20.18-13.22,44.29-12.57,63.26,2.58,16.11,12.75,25.04,32.88,31.77,51.18,1.87,5.1,3.61,10.18,5.32,15.18,8.15,24.43,18.91,47.9,32.28,69.94,31.95,52.74,77.95,97.11,132.3,126.32,36.55,19.6,75.01,35.63,115.51,44.69,10.06,2.23,20.19,4.04,30.39,5.45,12.78,1.71,28.37,3.27,41.37,9.38,22.47,10.2,36.51,33.77,25.57,57.8-7.78,16.64-22.46,27.39-37.09,37.05-19.29,12.53-41.97,25.42-66.04,20.26-11.48-2.65-21.84-8.92-31.59-15.07-9.33-6.1-18.11-12.66-26.41-20.19-4.15-3.83-8.28-7.83-12.07-12.99-5.75-7.92-12.59-15.1-20.13-21.81-24-21.09-53.21-37.67-72.24-64.48,0,0,16.52-5.55,16.52-5.55.23,14.41-.5,28.81-2.34,43.13-4.82,36.04-15.81,73.46-41.84,100.34-5.35,5.44-11.35,10.33-17.91,14.41,0,0-8.76-15.06-8.76-15.06,13.01-7.19,25.17-17.04,37.94-25.42,20.54-13.95,47.43-26.93,72.68-17.17,1.52.57,3.79,1.54,5.29,2.06,2.58,1.05,7.72,2.12,10.54,2.88,11.2,2.33,20.34,11.09,27.3,19.52,7.72,9.19,14.09,18.83,20.96,28.4,6.52,8.64,14.38,16.15,23.2,22.5,48.69,34.39,116.54,35.94,168.32,7.05,53.07-28.75,92.36-80.11,115.8-134.95,4.15-10.4,7.44-21.05,9.12-32.06,1.81-11.78,1.36-24.55,6.66-35.78,2.28-4.98,5.21-9.34,8.45-13.52,11.68-14.92,26.79-27.15,40.75-38.89,94.07-77.49,159.99-196.29,151.06-320.44-3.8-61.34-26.56-121.6-66.78-168.42-39.7-46.72-96.66-81.51-158.58-86.56,110.97,7.5,201.2,102.7,224.79,208.13,33.13,141.65-34.97,285.16-143.03,376.06-14.67,12.68-29.07,24.44-40.25,39.73-2.07,2.91-3.88,5.88-5.23,8.94-2.98,6.48-3.45,13.43-4.12,20.7-.62,7.79-1.61,16.18-3.53,23.87-5.62,23.33-16.37,45.17-28.54,65.54-39.51,68.04-110.3,126.95-192.72,123.35-48.38-1.84-98.71-22.92-125.33-65.04-4.41-6.2-8.93-12.31-13.66-17.9-6.21-7.28-11.04-12.14-18.84-14-3.41-.85-8.49-1.97-11.88-3.21-1.04-.37-2.08-.74-3.09-1.15,0,0-2.47-.96-2.47-.96-33.51-11.86-68.44,27.26-96.54,42.09-4.22,2.31-9.52.77-11.83-3.45-2.23-4.06-.88-9.12,2.99-11.55,10.65-6.67,19.56-16.11,26.61-27.01,14.3-22.26,21.19-48.98,24.51-75.26,1.63-13.41,2.3-27,2.02-40.54-.1-5.04,3.9-9.21,8.94-9.32,3.1-.06,5.88,1.43,7.58,3.77,5.79,7.91,12.65,15.09,20.21,21.78,24.07,21.03,53.36,37.44,72.56,64.16,10.86,14.18,41.93,36.57,58.9,40.75,13.56,2.65,26.03-2.83,38.56-9.77,12.5-7.4,25.87-15.61,35.73-26.29,12.91-13.79,12.57-28.97-3.34-39.66-12.24-7.93-26.08-8.62-41.36-10.78-26.9-3.57-53.35-10.14-78.94-19.1-88.69-31.07-164.99-84.93-213.77-166.4-14.11-23.18-25.49-48.08-34.07-73.83-1.71-5.01-3.4-9.94-5.16-14.78-6.63-17.43-14.47-36.79-30.64-45.95-14.85-8.97-33.84-2.51-44.32,10.48-5.39,6.55-8.33,14.62-7.7,22.32.75,10.9-13.84,14.84-18.75,5.19C3.52,395.32.53,382.24.06,369.29c-.98-31.28,10.18-60.69,23.38-88.19C87.35,147.52,207.54,39.76,351.28.34c0,0,.04-.01.04-.01,9.35-2.43,15.48,9.11,8.55,15.51-99.9,89.19-187.3,201.72-150.17,343.13,42.76,162.36,236.13,263.87,393.31,201.81,52.74-20.09,98.17-55.62,137.78-95.3,7.14-7.45,14.17-15.35,20.51-23.49,47.59-60.62,71.29-140.64,59.92-217.26-2.02-14.3-5.43-29.04-9.63-42.86,0,0-1.94-5.98-1.94-5.98,0,0-.98-2.99-.98-2.99,0,0-1.07-2.96-1.07-2.96,0,0-2.14-5.91-2.14-5.91,0,0-2.32-5.85-2.32-5.85,0,0-1.17-2.92-1.17-2.92,0,0-1.25-2.89-1.25-2.89,0,0-2.52-5.77-2.52-5.77,0,0-2.69-5.69-2.69-5.69,0,0-1.35-2.84-1.35-2.84,0,0-1.44-2.8-1.44-2.8,0,0-2.88-5.6-2.88-5.6,0,0-3.05-5.51-3.05-5.51,0,0-1.53-2.75-1.53-2.75,0,0-1.61-2.71-1.61-2.71,0,0-3.22-5.42-3.22-5.42,0,0-3.38-5.32-3.38-5.32l-1.7-2.66-1.77-2.61-3.55-5.21s-3.71-5.1-3.71-5.1c0,0-1.86-2.55-1.86-2.55,0,0-1.94-2.49-1.94-2.49,0,0-3.87-4.98-3.87-4.98,0,0-4.03-4.86-4.03-4.86,0,0-2.02-2.43-2.02-2.43,0,0-2.09-2.36-2.09-2.36,0,0-4.18-4.73-4.18-4.73,0,0-4.33-4.59-4.33-4.59,0,0-2.17-2.3-2.17-2.3,0,0-2.24-2.23-2.24-2.23,0,0-4.48-4.45-4.48-4.45,0,0-4.62-4.3-4.62-4.3,0,0-2.31-2.15-2.31-2.15,0,0-2.38-2.08-2.38-2.08,0,0-4.77-4.15-4.77-4.15l-4.9-3.99s-2.45-2-2.45-2c0,0-2.52-1.91-2.52-1.91,0,0-5.03-3.83-5.03-3.83,0,0-5.16-3.66-5.16-3.66,0,0-2.58-1.83-2.58-1.83-3.81-2.54-9.37-6.2-13.32-8.52-3.1-1.98-7.79-4.47-10.98-6.31h0Z"/>
      <path class="cls-1" d="M510.97,545.75c-68.72,0-133.32-27.62-181.9-77.78-48.54-50.11-75.26-116.73-75.26-187.57s26.5-134.73,74.63-181.59c47.41-46.16,111.71-71.58,181.06-71.58s131.83,24.63,176.67,69.34c22.29,22.22,39.65,48.7,51.61,78.69,12.31,30.89,18.56,64.73,18.56,100.57,0,71.86-24.58,139.23-69.21,189.69-45.76,51.73-108.32,80.23-176.15,80.23ZM509.5,37.24c-140.06,0-245.69,104.54-245.69,243.17s110.88,255.35,247.16,255.35,235.36-114.17,235.36-259.92c0-138.25-99.6-238.6-236.84-238.6Z"/>
      <path class="cls-1" d="M619.31,123.77c39.28,84.37-27.89,103.55-75.86,81.17-76.76-38.38-35.18-111.94-7.12-110.24-9.01-1.09-18.25-1.7-27.73-1.7-111.23,0-200.22,80.75-200.22,191.98s90.17,201.4,201.4,201.4,191.98-93.7,191.98-204.93c0-69.19-31.71-125.21-82.45-157.68ZM636.81,374.03c-43.17,72.97-137.32,97.12-210.29,53.95-72.97-43.17-97.12-137.32-53.95-210.29,4.94-8.35,10.57-16.03,16.74-23.07-17.05,64.7,9.85,135.42,70.29,171.17,64.62,38.23,145.82,23.63,193.55-30.89-3.54,13.42-8.92,26.58-16.33,39.12Z"/>
    </g>
  </g>
</svg>